<?xml version="1.0" standalone="no"?><!DOCTYPE svg PUBLIC "-//W3C//DTD SVG 1.1//EN" "http://www.w3.org/Graphics/SVG/1.1/DTD/svg11.dtd"><svg t="1483784359917" class="icon" style="" viewBox="0 0 1024 1024" version="1.1" xmlns="http://www.w3.org/2000/svg" p-id="1245" xmlns:xlink="http://www.w3.org/1999/xlink" width="32" height="32"><defs><style type="text/css"></style></defs><path d="M512 64C264.6 64 64 264.6 64 512s200.6 448 448 448 448-200.6 448-448S759.4 64 512 64z m294.2 742.2c-38.2 38.2-82.7 68.2-132.2 89.2C622.7 917 568.2 928 512 928s-110.7-11-161.9-32.7c-49.5-21-94-51-132.2-89.2-38.2-38.2-68.2-82.7-89.2-132.2C107 622.7 96 568.2 96 512s11-110.7 32.7-161.9c21-49.5 51-94 89.2-132.2 38.2-38.2 82.7-68.2 132.2-89.2C401.3 107 455.8 96 512 96s110.7 11 161.9 32.7c49.5 21 94 51 132.2 89.2 38.2 38.2 68.2 82.7 89.2 132.2C917 401.3 928 455.8 928 512s-11 110.7-32.7 161.9c-20.9 49.5-50.9 94-89.1 132.3z" fill="" p-id="1246"></path><path d="M704 448H576V320c0-35.2-28.8-64-64-64s-64 28.8-64 64v128H320c-35.2 0-64 28.8-64 64s28.8 64 64 64h128v128c0 35.2 28.8 64 64 64s64-28.8 64-64V576h128c35.2 0 64-28.8 64-64s-28.8-64-64-64z" fill="" p-id="1247"></path></svg>