<?xml version="1.0" standalone="no"?><!DOCTYPE svg PUBLIC "-//W3C//DTD SVG 1.1//EN" "http://www.w3.org/Graphics/SVG/1.1/DTD/svg11.dtd"><svg t="1484115162207" class="icon" style="" viewBox="0 0 1024 1024" version="1.1" xmlns="http://www.w3.org/2000/svg" p-id="11846" xmlns:xlink="http://www.w3.org/1999/xlink" width="32" height="32"><defs><style type="text/css"></style></defs><path d="M511.317455 63.620993c-12.386098 0-22.410406 10.035564-22.410406 22.410406l0 403.38935-403.387303 0c-12.386098 0-22.410406 10.022261-22.410406 22.408359s10.024308 22.410406 22.410406 22.410406l403.387303 0 0 403.38935c0 12.384052 10.024308 22.410406 22.410406 22.410406s22.410406-10.026354 22.410406-22.410406L533.727861 86.031399C533.727861 73.656557 523.703553 63.620993 511.317455 63.620993zM937.117211 489.420749 623.369483 489.420749c-12.384052 0-22.410406 10.022261-22.410406 22.408359s10.026354 22.410406 22.410406 22.410406L937.117211 534.239514c12.386098 0 22.408359-10.024308 22.408359-22.410406S949.503309 489.420749 937.117211 489.420749z" p-id="11847" fill="#bfbfbf"></path></svg>