<?xml version="1.0" standalone="no"?><!DOCTYPE svg PUBLIC "-//W3C//DTD SVG 1.1//EN" "http://www.w3.org/Graphics/SVG/1.1/DTD/svg11.dtd"><svg t="1483792137565" class="icon" style="" viewBox="0 0 1024 1024" version="1.1" xmlns="http://www.w3.org/2000/svg" p-id="4389" xmlns:xlink="http://www.w3.org/1999/xlink" width="32" height="32"><defs><style type="text/css"></style></defs><path d="M512 1024C229.248 1024 0 794.752 0 512 0 229.248 229.248 0 512 0 794.752 0 1024 229.248 1024 512 1024 794.752 794.752 1024 512 1024ZM512 42.666667C252.8 42.666667 42.666667 252.8 42.666667 512 42.666667 771.2 252.8 981.333333 512 981.333333 771.2 981.333333 981.333333 771.2 981.333333 512 981.333333 252.8 771.2 42.666667 512 42.666667ZM739.712 543.744 355.370667 543.744 476.8 673.664C487.850667 685.482667 487.850667 704.64 476.8 716.458667 471.296 722.389333 464.042667 725.333333 456.789333 725.333333 449.578667 725.333333 442.325333 722.389333 436.778667 716.458667L267.050667 534.869333C256 523.050667 256 503.893333 267.050667 492.074667L436.778667 310.485333C447.829333 298.666667 465.749333 298.666667 476.8 310.485333 487.850667 322.304 487.850667 341.461333 476.8 353.28L355.370667 483.2 739.712 483.2C755.328 483.2 768 496.768 768 513.493333 768 530.176 755.328 543.744 739.712 543.744Z" p-id="4390" fill="#2c2c2c"></path></svg>