<?xml version="1.0" standalone="no"?><!DOCTYPE svg PUBLIC "-//W3C//DTD SVG 1.1//EN" "http://www.w3.org/Graphics/SVG/1.1/DTD/svg11.dtd"><svg t="1484806176526" class="icon" style="" viewBox="0 0 1024 1024" version="1.1" xmlns="http://www.w3.org/2000/svg" p-id="6052" xmlns:xlink="http://www.w3.org/1999/xlink" width="24" height="24"><defs><style type="text/css"></style></defs><path d="M556.54 700.44a17.69 17.69 0 0 0 17.7-17.7v-94.35h100.22a17.7 17.7 0 0 0 0-35.4H574.24V446.87a17.7 17.7 0 0 0-35.4 0V553H438.59a17.7 17.7 0 1 0 0 35.4h100.25v94.35a17.71 17.71 0 0 0 17.7 17.69z" p-id="6053"></path><path d="M556.54 701a18.3 18.3 0 0 1-18.27-18.27V589h-99.68a18.27 18.27 0 0 1 0-36.55h99.68V446.87a18.27 18.27 0 0 1 36.55 0v105.54h99.65a18.27 18.27 0 0 1 0 36.55h-99.66v93.78A18.3 18.3 0 0 1 556.54 701z m-118-147.45a17.13 17.13 0 0 0 0 34.26h100.87v94.92a17.13 17.13 0 1 0 34.26 0v-94.91h100.79a17.13 17.13 0 0 0 0-34.26H573.67V446.87a17.13 17.13 0 0 0-34.26 0v106.69z" p-id="6054"></path><path d="M903.83 771.15V262.49l-162.6-151.75h-68.07l-56.84-53H120.17v820.11h100.22v88.45H903.8V842a17.69 17.69 0 0 0-17.69-17.69A17.69 17.69 0 0 0 868.43 842v17.69h-0.06v71.21H255.76V556.21a17.69 17.69 0 0 0-17.69-17.69 17.69 17.69 0 0 0-17.69 17.69v286.27h-64.84V93.07h446.82l18.94 17.67H220.42v377.39a17.69 17.69 0 0 0 17.69 17.69 17.69 17.69 0 0 0 17.69-17.69v-342h403.4l2.85 2.66 2.49-2.66h62.73l6.13 5.72V270.2h126.83l8.23 7.68v493.27a17.69 17.69 0 0 0 17.69 17.69 17.69 17.69 0 0 0 17.68-17.69zM757 246.65v-72.78l78 72.79z" p-id="6055"></path></svg>