<?xml version="1.0" standalone="no"?><!DOCTYPE svg PUBLIC "-//W3C//DTD SVG 1.1//EN" "http://www.w3.org/Graphics/SVG/1.1/DTD/svg11.dtd"><svg t="1484833871756" class="icon" style="" viewBox="0 0 1024 1024" version="1.1" xmlns="http://www.w3.org/2000/svg" p-id="7507" xmlns:xlink="http://www.w3.org/1999/xlink" width="32" height="32"><defs><style type="text/css"></style></defs><path d="M614.4 256l51.2 0 0 512-51.2 0L614.4 256zM307.2 256l51.2 0 0 512L307.2 768 307.2 256zM460.8 256l51.2 0 0 512L460.8 768 460.8 256zM204.8 153.6l563.2 0 0 716.8L204.8 870.4 204.8 153.6zM921.6 102.4l-358.4 0L563.2 51.2 409.6 51.2l0 51.2L51.2 102.4l0 51.2 102.4 0 0 768 665.6 0L819.2 153.6l102.4 0L921.6 102.4z" p-id="7508" fill="#ffffff"></path></svg>