<?xml version="1.0" standalone="no"?><!DOCTYPE svg PUBLIC "-//W3C//DTD SVG 1.1//EN" "http://www.w3.org/Graphics/SVG/1.1/DTD/svg11.dtd"><svg t="1483794793768" class="icon" style="" viewBox="0 0 1024 1024" version="1.1" xmlns="http://www.w3.org/2000/svg" p-id="11061" xmlns:xlink="http://www.w3.org/1999/xlink" width="35" height="35"><defs><style type="text/css"></style></defs><path d="M714.116414 333.576828l-50.405517 0c-0.741517 0-1.377103 0.335448-2.100966 0.423724-0.706207-0.088276-1.341793-0.423724-2.048-0.423724l-66.507034 0L593.054897 300.137931c0-9.76331-7.891862-17.655172-17.655172-17.655172l-126.799448 0c-9.76331 0-17.655172 7.891862-17.655172 17.655172l0 33.438897-66.542345 0c-0.617931 0-1.165241 0.300138-1.765517 0.370759-0.617931-0.070621-1.165241-0.370759-1.818483-0.370759l-50.952828 0c-9.76331 0-17.655172 7.891862-17.655172 17.655172s7.891862 17.655172 17.655172 17.655172l37.799724 0 19.261793 355.928276c0.512 9.374897 8.262621 16.701793 17.637517 16.701793l255.099586 0c9.374897 0 17.143172-7.344552 17.637517-16.701793l18.97931-355.928276 37.817379 0c9.76331 0 17.655172-7.891862 17.655172-17.655172S723.879724 333.576828 714.116414 333.576828zM466.255448 317.793103l91.489103 0 0 15.783724-91.489103 0L466.255448 317.793103zM622.945103 706.206897 401.302069 706.206897l-18.255448-337.319724 257.871448 0L622.945103 706.206897z" p-id="11062"></path><path d="M445.281103 686.786207c0.335448 0 0.653241 0 0.971034-0.017655 9.745655-0.529655 17.213793-8.862897 16.684138-18.590897l-14.177103-261.790897c-0.529655-9.745655-9.604414-17.37269-18.590897-16.684138-9.745655 0.529655-17.213793 8.862897-16.684138 18.590897l14.177103 261.790897C428.173241 679.494621 435.959172 686.786207 445.281103 686.786207z" p-id="11063"></path><path d="M577.271172 686.768552c0.335448 0.017655 0.635586 0.017655 0.971034 0.017655 9.304276 0 17.107862-7.291586 17.619862-16.701793l14.177103-261.790897c0.512-9.728-6.956138-18.043586-16.684138-18.590897-9.586759-0.653241-18.043586 6.956138-18.590897 16.684138l-14.177103 261.790897C560.075034 677.905655 567.543172 686.238897 577.271172 686.768552z" p-id="11064"></path><path d="M512 686.786207c9.76331 0 17.655172-7.891862 17.655172-17.655172L529.655172 407.340138c0-9.76331-7.891862-17.655172-17.655172-17.655172s-17.655172 7.891862-17.655172 17.655172L494.344828 669.131034C494.344828 678.894345 502.23669 686.786207 512 686.786207z" p-id="11065"></path><path d="M512 35.310345c262.850207 0 476.689655 213.839448 476.689655 476.689655s-213.839448 476.689655-476.689655 476.689655-476.689655-213.839448-476.689655-476.689655S249.149793 35.310345 512 35.310345M512 0c-282.765241 0-512 229.234759-512 512s229.234759 512 512 512 512-229.234759 512-512S794.765241 0 512 0L512 0z" p-id="11066"></path></svg>