<?xml version="1.0" standalone="no"?><!DOCTYPE svg PUBLIC "-//W3C//DTD SVG 1.1//EN" "http://www.w3.org/Graphics/SVG/1.1/DTD/svg11.dtd"><svg t="1484833818769" class="icon" style="" viewBox="0 0 1024 1024" version="1.1" xmlns="http://www.w3.org/2000/svg" p-id="6553" xmlns:xlink="http://www.w3.org/1999/xlink" width="32" height="32"><defs><style type="text/css"></style></defs><path d="M331.2 849.6l560-560c12.8-12.8 12.8-32 0-44.8L824 176l-67.2-67.2c-12.8-12.8-32-12.8-44.8 0l-560 560C147.2 672 144 675.2 142.4 680L81.6 886.4c-3.2 8 0 17.6 6.4 24L88 912l1.6 1.6c6.4 6.4 14.4 8 24 6.4L320 857.6C324.8 856 329.6 852.8 331.2 849.6zM745.6 164.8l46.4 46.4 44.8 44.8c6.4 6.4 6.4 16 0 22.4l-78.4 78.4-113.6-113.6 78.4-78.4C728 158.4 739.2 158.4 745.6 164.8zM139.2 862.4l48-161.6 433.6-433.6 113.6 113.6L300.8 812.8 139.2 862.4z" p-id="6554" fill="#ffffff"></path></svg>