<?xml version="1.0" standalone="no"?><!DOCTYPE svg PUBLIC "-//W3C//DTD SVG 1.1//EN" "http://www.w3.org/Graphics/SVG/1.1/DTD/svg11.dtd"><svg t="1483779873146" class="icon" style="" viewBox="0 0 1024 1024" version="1.1" xmlns="http://www.w3.org/2000/svg" p-id="1202" xmlns:xlink="http://www.w3.org/1999/xlink" width="24" height="24"><defs><style type="text/css"></style></defs><path d="M476.2 758.4L808 364.9c21.3-25.2 18-63.3-7.2-84.5L678.6 177.2c-25.2-21.3-63.3-18-84.5 7.2L262.2 577.9 243 787.7c-0.7 7.7 2.4 15.3 8.3 20.3s13.9 6.8 21.4 4.8l203.5-54.4z m93.9-471.2l140.7 118.6-240.3 285-140.7-118.7 240.3-284.9z m77.5-73.3L769.9 317c5 4.2 5.6 11.9 1.4 16.9l-29.8 35.4-140.6-118.6 29.8-35.4c4.2-5 12-5.6 16.9-1.4zM293.4 758l13.1-142.7L431.9 721l-138.5 37z" fill="#2c2c2c" p-id="1203"></path></svg>