<?xml version="1.0" standalone="no"?><!DOCTYPE svg PUBLIC "-//W3C//DTD SVG 1.1//EN" "http://www.w3.org/Graphics/SVG/1.1/DTD/svg11.dtd"><svg t="1483792921020" class="icon" style="" viewBox="0 0 1024 1024" version="1.1" xmlns="http://www.w3.org/2000/svg" p-id="5757" xmlns:xlink="http://www.w3.org/1999/xlink" width="32" height="32"><defs><style type="text/css"></style></defs><path d="M368.308706 642.198588c13.432471 13.432471 35.177412 13.432471 48.609882 0l231.936-231.905882-48.64-48.64-231.905882 231.905882C354.876235 606.991059 354.876235 628.766118 368.308706 642.198588z" p-id="5758"></path><path d="M659.576471 424.749176l-231.905882 231.936c-7.258353 7.198118-7.258353 18.944 0 26.172235 7.198118 7.228235 18.913882 7.228235 26.172235 0l231.905882-231.936c0.662588-0.632471 1.174588-1.355294 1.686588-2.048l-25.810824-25.810824C660.931765 423.574588 660.208941 424.116706 659.576471 424.749176z" p-id="5759"></path><path d="M353.340235 582.324706l231.936-231.936c0.632471-0.632471 1.144471-1.325176 1.656471-2.048l-25.810824-25.810824c-0.692706 0.542118-1.415529 1.054118-2.048 1.686588l-231.936 231.905882c-7.228235 7.228235-7.228235 18.944 0 26.202353C334.396235 589.583059 346.112 589.583059 353.340235 582.324706z" p-id="5760"></path><path d="M401.317647 675.870118c-74.059294 0-63.457882-63.457882-63.457882-63.457882-31.744 0-37.014588-21.142588-37.014588-21.142588l-31.744 153.389176 158.72-37.014588C398.155294 701.289412 401.317647 675.870118 401.317647 675.870118z" p-id="5761"></path><path d="M672.225882 282.473412c-19.456-19.456-51.019294-19.456-70.505412 0l-24.455529 24.455529 126.915765 126.945882 24.485647-24.455529c19.456-19.456 19.456-51.049412 0-70.535529L672.225882 282.473412z" p-id="5762"></path><path d="M864.045176 148.269176C768.451765 52.675765 641.295059 0 506.066824 0 370.778353 0 243.591529 52.675765 148.028235 148.299294c-197.391059 197.391059-197.330824 518.565647 0.030118 715.956706 95.593412 95.623529 222.72 148.269176 358.008471 148.269176 135.228235 0 262.384941-52.645647 357.918118-148.239059 95.653647-95.623529 148.299294-222.750118 148.299294-358.008471S959.638588 243.892706 864.045176 148.269176zM828.777412 829.048471c-86.136471 86.166588-200.824471 133.632-322.710588 133.632-121.946353 0-236.574118-47.465412-322.831059-133.662118-177.965176-177.965176-177.965176-467.546353 0-645.511529 86.196706-86.196706 200.884706-133.692235 322.831059-133.692235s236.544 47.465412 322.710588 133.662118c86.196706 86.196706 133.692235 200.854588 133.692235 322.770824C962.469647 628.193882 914.974118 742.881882 828.777412 829.048471z" p-id="5763"></path></svg>