<?xml version="1.0" standalone="no"?><!DOCTYPE svg PUBLIC "-//W3C//DTD SVG 1.1//EN" "http://www.w3.org/Graphics/SVG/1.1/DTD/svg11.dtd"><svg t="1483802984131" class="icon" style="" viewBox="0 0 1024 1024" version="1.1" xmlns="http://www.w3.org/2000/svg" p-id="10285" xmlns:xlink="http://www.w3.org/1999/xlink" width="36" height="36"><defs><style type="text/css"></style></defs><path d="M510.464 650.24c-5.632 0-11.264-2.048-15.36-6.144-4.096-4.096-6.144-9.728-6.144-15.36s2.048-11.264 6.144-15.36l84.992-84.992H117.76c-12.288 0-22.016-9.728-22.016-22.016s9.728-22.016 22.016-22.016h461.824L494.592 399.36c-4.096-4.096-6.144-9.728-6.144-15.36s2.048-11.264 6.144-15.36c4.096-4.096 9.728-6.144 15.36-6.144s11.264 2.048 15.36 6.144l122.368 122.368c4.096 4.096 6.144 9.728 6.144 15.36s-2.048 11.264-6.144 15.36l-122.368 122.368c-3.584 3.584-9.216 6.144-14.848 6.144z" fill="#f48fb1" p-id="10286"></path><path d="M510.464 925.696c-180.224 0-339.968-114.688-397.824-285.184-1.024-2.56-2.048-5.632-2.048-9.216 0-13.312 10.752-24.064 24.064-24.064 10.24 0 19.456 6.656 22.528 15.872 50.688 152.576 192.512 254.976 352.768 254.976 204.8 0 371.712-166.912 371.712-371.712 0-204.8-166.912-371.712-371.712-371.712-164.864 0-311.296 110.592-357.376 268.8-3.584 9.728-12.288 15.872-22.528 15.872-13.312 0-24.064-10.752-24.064-24.064 0-2.048 0.512-3.584 0.512-5.12v-0.512c0-0.512 0-1.536 0.512-2.048 25.088-84.992 77.824-161.28 148.48-215.04 73.728-56.32 161.28-86.016 254.464-86.016 112.128 0 217.6 44.032 296.96 123.392 79.36 79.36 122.88 184.832 122.88 296.448 1.024 230.912-187.392 419.328-419.328 419.328z" fill="#212121" p-id="10287"></path></svg>