<?xml version="1.0" standalone="no"?><!DOCTYPE svg PUBLIC "-//W3C//DTD SVG 1.1//EN" "http://www.w3.org/Graphics/SVG/1.1/DTD/svg11.dtd"><svg t="1485074349356" class="icon" style="" viewBox="0 0 1024 1024" version="1.1" xmlns="http://www.w3.org/2000/svg" p-id="1552" xmlns:xlink="http://www.w3.org/1999/xlink" width="64" height="64"><defs><style type="text/css"></style></defs><path d="M512 0C229.23 0 0 229.23 0 512s229.23 512 512 512 512-229.23 512-512S794.77 0 512 0zM99.18 337.64a448.15 448.15 0 0 1 834.31 326.6L758.63 489.37a32 32 0 0 0-45.26 0L560 642.74 342.63 425.37a32 32 0 0 0-45.25 0L82.57 640.17a450.46 450.46 0 0 1 16.61-302.53zM512 960a448.63 448.63 0 0 1-404.21-254.54L320 493.25l410.17 410.17A446.33 446.33 0 0 1 512 960z m316.78-131.22a452.57 452.57 0 0 1-44 38.7L605.26 688 736 557.25l169.37 169.38a447.39 447.39 0 0 1-76.59 102.15z" p-id="1553" fill="#bfbfbf"></path><path d="M560 448a112 112 0 1 0-112-112 112 112 0 0 0 112 112z m0-160a48 48 0 1 1-48 48 48.05 48.05 0 0 1 48-48z" p-id="1554" fill="#bfbfbf"></path></svg>