<?xml version="1.0" standalone="no"?><!DOCTYPE svg PUBLIC "-//W3C//DTD SVG 1.1//EN" "http://www.w3.org/Graphics/SVG/1.1/DTD/svg11.dtd"><svg t="1490338450282" class="icon" style="" viewBox="0 0 1024 1024" version="1.1" xmlns="http://www.w3.org/2000/svg" p-id="16199" xmlns:xlink="http://www.w3.org/1999/xlink" width="24" height="24"><defs><style type="text/css"></style></defs><path d="M512 939.2c-224.288 0-406.752-182.464-406.752-406.752 0-137.216 68.64-264.288 183.584-339.904 11.104-7.232 25.952-4.192 33.248 6.88 7.296 11.072 4.192 25.984-6.88 33.248-101.408 66.688-161.984 178.784-161.984 299.776C153.248 730.272 314.176 891.2 512 891.2c197.856 0 358.784-160.928 358.784-358.752 0-121.024-60.576-233.088-161.984-299.776-11.072-7.296-14.144-22.176-6.88-33.248 7.328-11.072 22.176-14.08 33.248-6.88 114.976 75.616 183.616 202.688 183.616 339.904C918.752 756.736 736.288 939.2 512 939.2z" p-id="16200" fill="#a6897c"></path><path d="M512 433.44c-13.248 0-24-10.752-24-24L488 108.8c0-13.248 10.752-24 24-24s24 10.752 24 24l0 300.64C536 422.688 525.248 433.44 512 433.44z" p-id="16201" fill="#a6897c"></path></svg>