<?xml version="1.0" standalone="no"?><!DOCTYPE svg PUBLIC "-//W3C//DTD SVG 1.1//EN" "http://www.w3.org/Graphics/SVG/1.1/DTD/svg11.dtd"><svg t="1484805636278" class="icon" style="" viewBox="0 0 1024 1024" version="1.1" xmlns="http://www.w3.org/2000/svg" p-id="3434" xmlns:xlink="http://www.w3.org/1999/xlink" width="24" height="24"><defs><style type="text/css"></style></defs><path d="M832 704 832 832c0 0 0 0 0 0L192 832c0 0 0 0 0 0L192 192c0 0 0 0 0 0L832 192c0 0 0 0 0 0l0 127.9 64 0L896 192c0-35.3-28.7-64-64-64L192 128c-35.3 0-64 28.7-64 64l0 640c0 35.3 28.7 64 64 64l640 0c35.3 0 64-28.7 64-64L896 704 832 704z" p-id="3435" fill="#000000"></path><path d="M658.7 658.7 703.9 704 895.8 512 704.3 320.5 659.1 365.7 773.3 480 383.8 480 383.8 544 773.3 544Z" p-id="3436" fill="#000000"></path></svg>