<?xml version="1.0" standalone="no"?><!DOCTYPE svg PUBLIC "-//W3C//DTD SVG 1.1//EN" "http://www.w3.org/Graphics/SVG/1.1/DTD/svg11.dtd"><svg t="1484104250543" class="icon" style="" viewBox="0 0 1184 1024" version="1.1" xmlns="http://www.w3.org/2000/svg" p-id="1874" xmlns:xlink="http://www.w3.org/1999/xlink" width="74" height="64"><defs><style type="text/css"></style></defs><path d="M591.998613 136.799679C527.534764 70.447835 423.391008 0 329.983227 0 139.231674 0 0 156.511633 0 348.847182c0 114.079733 56.575867 194.991543 97.343772 254.671404 121.039716 176.415587 424.927004 393.951077 438.078973 401.919058C552.542705 1017.341616 572.270659 1023.9976 591.998613 1023.9976a93.423781 93.423781 0 0 0 56.575867-18.559956c13.151969-9.279978 315.72726-226.831468 438.078973-401.919058C1127.421358 543.838725 1183.997225 462.926915 1183.997225 348.847182 1183.997225 156.527633 1044.765551 0 854.013998 0 760.606217 0 656.462461 69.135838 591.998613 136.799679z" fill="#d81e06" p-id="1875"></path></svg>