<?xml version="1.0" standalone="no"?><!DOCTYPE svg PUBLIC "-//W3C//DTD SVG 1.1//EN" "http://www.w3.org/Graphics/SVG/1.1/DTD/svg11.dtd"><svg t="1483799801304" class="icon" style="" viewBox="0 0 1024 1024" version="1.1" xmlns="http://www.w3.org/2000/svg" p-id="4795" xmlns:xlink="http://www.w3.org/1999/xlink" width="128" height="128"><defs><style type="text/css"></style></defs><path d="M877.187795 0 146.739551 0c-81.038688 0-146.718573 65.679885-146.718573 146.791228l0 730.448244c0 81.111343 65.679885 146.718573 146.718573 146.718573l730.448244 0c81.037664 0 146.791228-65.606207 146.791228-146.718573L1023.979022 146.791228C1023.979022 65.679885 958.225459 0 877.187795 0L877.187795 0zM943.231977 164.710342l-0.145309 0c-55.148018 2.925632-92.448552 34.229592-111.685685 93.692892l-281.879925 664.10935-34.009582 0L199.6936 244.945735c-22.673395-50.393737-58.146305-77.30976-106.711394-80.235392l0-26.696012 417.774989 0 0 26.696012c-81.112366 0-116.51262 16.45681-106.931405 49.077765 0 20.844747 12.94687 53.464679 38.911218 98.079806l160.321382 361.01731 160.103418-374.403179c0-2.998287 1.535983-8.922207 5.119601-17.919115 12.726859-29.621645 19.308765-50.393737 19.308765-62.314231 3.14462-32.694633-32.401967-50.686403-106.85875-53.53938l0-26.696012 262.425851 0 0 26.696012L943.231977 164.709319 943.231977 164.710342z" p-id="4796" fill="#e93e61"></path></svg>