<?xml version="1.0" standalone="no"?><!DOCTYPE svg PUBLIC "-//W3C//DTD SVG 1.1//EN" "http://www.w3.org/Graphics/SVG/1.1/DTD/svg11.dtd"><svg t="1483784240665" class="icon" style="" viewBox="0 0 1024 1024" version="1.1" xmlns="http://www.w3.org/2000/svg" p-id="1059" xmlns:xlink="http://www.w3.org/1999/xlink" width="32" height="32"><defs><style type="text/css"></style></defs><path d="M512 912c-54 0-106.4-10.6-155.7-31.4-47.6-20.1-90.4-49-127.1-85.7-36.7-36.7-65.6-79.5-85.7-127.1C122.6 618.4 112 566 112 512c0-63.7 15.4-127.1 44.4-183.4 28.1-54.4 69.1-102.4 118.5-138.8 7.1-5.2 17.1-3.7 22.4 3.4 5.2 7.1 3.7 17.1-3.4 22.4-45.5 33.5-83.2 77.7-109.1 127.8C157.7 395.8 144 452.5 144 512c0 98.3 38.3 190.7 107.8 260.2S413.7 880 512 880c98.3 0 190.7-38.3 260.2-107.8S880 610.3 880 512c0-59.5-13.7-116.2-40.9-168.7-25.9-50.1-63.6-94.2-109.1-127.8-7.1-5.2-8.6-15.3-3.4-22.4 5.2-7.1 15.3-8.6 22.4-3.4 49.4 36.4 90.4 84.4 118.5 138.8C896.6 384.9 912 448.3 912 512c0 54-10.6 106.4-31.4 155.7-20.1 47.6-49 90.4-85.7 127.1s-79.5 65.6-127.1 85.7C618.4 901.4 566 912 512 912z" fill="#2c2c2c" p-id="1060"></path><path d="M512 448c-17.7 0-32-14.3-32-32V160c0-17.7 14.3-32 32-32s32 14.3 32 32v256c0 17.7-14.3 32-32 32z" fill="#2c2c2c" p-id="1061"></path></svg>