<?xml version="1.0" standalone="no"?><!DOCTYPE svg PUBLIC "-//W3C//DTD SVG 1.1//EN" "http://www.w3.org/Graphics/SVG/1.1/DTD/svg11.dtd"><svg t="1484102408307" class="icon" style="" viewBox="0 0 1024 1024" version="1.1" xmlns="http://www.w3.org/2000/svg" p-id="1097" xmlns:xlink="http://www.w3.org/1999/xlink" width="48" height="48"><defs><style type="text/css"></style></defs><path d="M732.704625 308.502792l-151.709089-61.703426-68.779496 99.371143-68.675061-99.371143-151.813524 61.703426 80.953493-124.86384 8.844321-13.526549-33.401187-87.197146 164.091958 74.294144 164.091958-74.294144-33.296751 87.197146 9.156606 14.255556z" fill="#9AD14B" p-id="1098"></path><path d="M774.43 220.889948c89.069832 74.814277 145.674308 186.983986 145.674308 312.472395 0 225.275249-182.614043 407.889292-407.889292 407.889293S104.326747 758.637593 104.326747 533.362343c0-126.736526 57.74918-239.947526 148.48385-314.761802 35.37831-29.239093 75.854544-35.690595 119.869327-34.858176l-80.953493 124.863839 151.813525-61.807861 68.67506 99.371142 68.67506-99.371142 151.813525 61.807861-80.537796-124.135857c45.057098-0.726959 86.262339 6.244677 122.264195 36.419601z" fill="#F95428" p-id="1099"></path><path d="M314.618459 533.362343c0-107.903179 41.933223-206.025181 110.400435-279.071208L291.830867 308.502792l80.953493-124.86384c-44.014782-0.832419-84.491017 5.619083-119.869326 34.858176-90.73467 74.918713-148.588286 188.12869-148.588287 314.865215 0 225.275249 182.614043 407.889292 407.889293 407.889293 36.314141 0 71.589038-4.786664 105.093637-13.735422-174.288832-46.407602-302.691219-205.297199-302.691218-394.153871z" fill="#E54728" p-id="1100"></path><path d="M696.286048 848.852129c-6.451501 0-12.69413-3.225239-16.33609-9.052171-5.619083-9.05217-2.809541-20.914906 6.139216-26.533988 97.601869-60.767594 155.872206-165.44451 155.872206-280.008063 0-54.10722-13.423137-107.799766-38.811397-155.247636-4.994513-9.364455-1.456989-21.018318 7.90849-26.012831 9.364455-4.994513 21.018318-1.456989 26.012831 7.908491 28.302238 53.066953 43.285776 113.002128 43.285776 173.353 0 63.576111-16.544963 126.320828-47.864591 181.364903-30.383797 53.483674-73.981858 98.851009-126.11298 131.315341a18.897851 18.897851 0 0 1-10.093461 2.912954z" fill="#FFFFFF" p-id="1101"></path><path d="M527.616299 217.872558l-15.400259 128.297951-68.675061-99.371143-151.813524 61.703426 80.953493-124.86384 8.844321-13.526549-33.401187-87.197146 164.091958 74.294144-43.598061 37.667717z" fill="#90BC42" p-id="1102"></path><path d="M788.99784 321.925928m-19.250068 0a19.250068 19.250068 0 1 0 38.500136 0 19.250068 19.250068 0 1 0-38.500136 0Z" fill="#FFFFFF" p-id="1103"></path><path d="M786.812869 206.114259c-39.540403-33.193338-84.283168-40.164974-121.326315-40.997392l28.822371-75.334411c2.809541-7.28392 0.936855-15.503672-4.786663-20.914905-5.722495-5.306798-14.046683-6.763786-21.122755-3.537524l-156.184491 70.756619-156.079031-70.756619c-7.076071-3.225239-15.400259-1.872686-21.122754 3.537524-5.722495 5.306798-7.596205 13.630985-4.786664 20.914905l28.51111 74.606428c-36.210728 0.62457-79.496504 7.387333-118.204489 39.332555-98.746572 81.578063-155.352073 201.655239-155.352072 329.640904 0 235.473147 191.561777 427.034924 427.13936 427.034925 235.473147 0 427.034924-191.561777 427.034924-427.034925 0-126.528677-55.668645-245.773433-152.542531-327.248084zM504.30755 174.794631c4.994513 2.289408 10.821444 2.289408 15.920392 0l121.430752-55.044075-16.648375 43.494649c-2.184971 5.722495-1.560401 12.173997 1.872686 17.377381l56.501064 87.09271-95.104612-38.707985c-8.324188-3.434111-17.897515-0.520134-23.099877 6.867199l-52.859104 76.479114-52.859104-76.479114c-3.64196-5.306798-9.67674-8.324188-15.815956-8.324188-2.39282 0-4.890076 0.416721-7.28392 1.456989l-95.104613 38.707985 56.501064-87.09271c3.329675-5.202361 4.057658-11.549426 1.872686-17.377381l-16.648375-43.494649 121.325292 55.044075z m7.90849 747.103524c-214.350393 0-388.639224-174.289856-388.639225-388.639224 0-116.435215 51.506551-225.69197 141.408803-299.881677 19.665765-16.232678 41.933223-25.389284 71.276753-28.926808l-60.663158 93.544211c-4.578815 7.076071-4.057658 16.232678 1.352552 22.683155a19.117987 19.117987 0 0 0 22.05961 5.514646l137.454557-55.98093 59.935175 86.675989c3.537524 5.202361 9.468891 8.324188 15.815957 8.324187s12.278433-3.121826 15.815956-8.324187l59.935176-86.675989 137.454557 55.98093c7.804054 3.121826 16.752812 0.936855 22.059609-5.514646 5.306798-6.451501 5.931368-15.712544 1.352552-22.683155l-60.143023-92.711793c30.279361 3.746396 53.171389 13.3187 73.357287 30.279361 88.237413 74.086294 138.80711 182.614043 138.80711 297.696706-0.001024 214.349369-174.289856 388.639224-388.640248 388.639224z" fill="#333333" p-id="1104"></path></svg>